# xmcd CD database file
#
# Track frame offsets:
#	182
#	9180
#	19182
#	28942
#	42390
#	56495
#	84725
#	110102
#	125190
#	136320
#	147927
#	163842
#	183552
#	201117
#	218150
#	239422
#	259072
#	271095
#
# Disc length: 3829 seconds
#
# Revision: 0
# Processed by: cddbd v1.5.1PL2 Copyright (c) Steve Scherf et al.
# Submitted via: Feurio! 1.68 - http://www.feurio.com
#
DISCID=0e0ef312
DTITLE=FRANK SCHÖBEL - GOLDEN STARS
DYEAR=1900
DGENRE=
TTITLE0=Party Twist
TTITLE1=Looky Looky
TTITLE2=Ich kam zu spät
TTITLE3=Das Mädchenchor
TTITLE4=Mädchen du bist schön
TTITLE5=Wie ein Stern
TTITLE6=Schreib' es in den Sand
TTITLE7=Gold in deinen Augen
TTITLE8=Die Sprache der Liebe ist leis
TTITLE9=Ich geh vom Nordpol zum Sügpol
TTITLE10=Ja der Fußball ist rund wie die Welt
TTITLE11=Zwei schöne Jahre
TTITLE12=Man kann sich dran gewöhnen
TTITLE13=Mit mir könnses ja machen
TTITLE14=Wir fliegen mit dem Wind
TTITLE15=Ich brauch dich so 
TTITLE16=Die Fans sind eine Macht
TTITLE17=Wir brauchen keine Lügen mehr
EXTD=
EXTT0=
EXTT1=
EXTT2=
EXTT3=
EXTT4=
EXTT5=
EXTT6=
EXTT7=
EXTT8=
EXTT9=
EXTT10=
EXTT11=
EXTT12=
EXTT13=
EXTT14=
EXTT15=
EXTT16=
EXTT17=
PLAYORDER=
